<svg width="96" height="28" viewBox="0 0 96 28" fill="none" xmlns="http://www.w3.org/2000/svg">
<path fill-rule="evenodd" clip-rule="evenodd" d="M68.1736 14.0101C68.1736 21.7238 62.8358 28 54.3648 28C46.068 28 40.556 21.7035 40.556 13.9899C40.556 6.27621 45.8552 0 54.3648 0C62.8938 0 68.1736 6.29646 68.1736 14.0101ZM0.290101 0.546661H12.7064C23.3822 0.546661 27.5596 7.10632 27.5596 14.0506C27.5596 21.1164 22.2024 27.4129 12.0102 27.4129H0.309441C0.0967004 27.4129 0.0193401 27.2712 0.0193401 27.1497C0.0193401 27.008 0.154721 26.8865 0.348122 26.8865H2.53355C3.21045 26.8865 3.65528 26.4613 3.65528 25.6718V2.3283C3.65528 1.74117 3.38452 1.0933 2.49487 1.0933H0.270761C0.0967004 1.0933 0 0.971824 0 0.830103C0 0.708628 0.0386802 0.546661 0.290101 0.546661ZM8.04533 26.1576C8.04533 26.7447 8.29675 26.9269 8.66421 26.9269H11.952C20.0555 26.9269 22.9952 20.428 22.9952 13.9088C22.9952 7.38966 19.8815 1.07296 13.0351 1.07296H8.56751C8.10335 1.07296 8.06467 1.47787 8.06467 1.66009L8.04533 26.1576ZM28.4297 0.789612C28.4297 0.627645 28.6037 0.546661 28.7971 0.546661V0.566907H39.2795C39.5116 0.566907 39.6083 0.688382 39.6083 0.830103C39.6083 0.971824 39.5116 1.07305 39.3375 1.07305H37.3455C36.6106 1.07305 36.2044 1.51846 36.2044 2.18657V25.7932C36.2044 26.7245 36.9974 26.9068 37.2875 26.9068H39.3182C39.589 26.9068 39.6276 27.0687 39.6276 27.2307C39.6276 27.3927 39.4149 27.4129 39.2602 27.4129H28.7391C28.4655 27.4129 28.4671 27.2868 28.4682 27.2046L28.4683 27.1902C28.4683 27.1092 28.4877 26.9068 28.7391 26.9068H30.9052C31.5241 26.9068 31.8722 26.1779 31.8722 25.692V2.42952C31.8722 1.41723 31.3887 1.05281 30.8859 1.05281H28.7004C28.5264 1.05281 28.4297 0.951578 28.4297 0.789612ZM45.2362 13.9899C45.2362 6.55968 48.408 0.546661 54.3648 0.546661C60.2055 0.546661 63.4933 6.55968 63.4933 13.9899C63.4933 21.4201 60.4956 27.4331 54.3648 27.4331C48.4274 27.4534 45.2362 21.4201 45.2362 13.9899ZM95.2497 27.2509C92.6872 27.5317 91.0085 24.2084 89.6034 21.4268L89.6033 21.4267C89.1844 20.5974 88.7897 19.8162 88.4033 19.1931C87.1462 17.1887 84.4773 15.1439 81.847 14.739C86.1792 14.4758 91.0335 13.0181 91.0335 7.87566C91.0335 3.70501 88.5774 0.546661 79.5649 0.546661H69.1793C69.0439 0.546661 68.9085 0.627645 68.9085 0.789612C68.9085 0.951578 69.0439 1.05281 69.1793 1.05281H71.5581C72.061 1.05281 72.5445 1.41723 72.5445 2.42952V25.692C72.5445 26.1779 72.1963 26.9068 71.5775 26.9068H69.2373C69.0439 26.9068 68.9666 27.0687 68.9666 27.1497C68.9666 27.2307 69.0439 27.4129 69.2373 27.4129H80.2611C80.4159 27.4129 80.5512 27.3319 80.5512 27.1699C80.5512 27.008 80.4545 26.9068 80.2418 26.9068H78.0177C77.7276 26.9068 76.9346 26.7043 76.9346 25.7932V14.7997H78.0757C81.8476 14.7997 83.2051 17.763 84.5794 20.7627C85.1922 22.1004 85.8083 23.4453 86.6433 24.538C88.9641 27.5749 92.0005 27.9595 93.7218 27.9595C94.4567 27.9595 94.9596 27.9393 95.4237 27.8178C95.7138 27.7166 95.7718 27.1902 95.2497 27.2509ZM79.6423 1.05281H78.0371C77.3022 1.05281 76.896 1.49821 76.896 2.18657V14.2733H79.2362C82.8914 14.2733 86.8367 12.5929 86.8367 7.61246C86.8367 2.18657 82.3886 1.05281 79.6423 1.05281Z" fill="black"/>
</svg>
